<svg width="199" height="50" viewBox="0 0 199 50" fill="none" xmlns="http://www.w3.org/2000/svg">
<g clip-path="url(#clip0_4_107)">
<path d="M0 43.1235L4.38708 36.076C4.38708 36.076 7.34014 38.3681 11.7329 38.3681C14.2665 38.3681 20.7621 38.3681 20.7621 29.0284V12.7267H5.23162V1.09479H26.5832V29.0284C26.5832 44.4806 19.2374 50 12.3167 50C5.396 50 0 43.1235 0 43.1235Z" fill="white"/>
<path d="M45.2255 13.3196C51.7267 13.3196 58.2223 19.0101 58.2223 31.657C58.2223 44.3038 51.7211 49.9943 45.2255 49.9943C38.7299 49.9943 32.3136 44.3038 32.3136 31.657C32.3136 19.0101 38.8149 13.3196 45.2255 13.3196ZM38.0497 31.657C38.0497 35.8194 40.8327 38.3624 45.2255 38.3624C49.6182 38.3624 52.4012 35.8137 52.4012 31.657C52.4012 27.5003 49.6976 24.9515 45.2255 24.9515C40.7534 24.9515 38.0497 27.5003 38.0497 31.657Z" fill="white"/>
<path d="M64.803 4.99487C64.803 2.24655 67.0305 0 69.6945 0C72.3585 0 74.6597 2.24085 74.6597 4.99487C74.6597 7.74889 72.4322 9.91561 69.6945 9.91561C66.9568 9.91561 64.803 7.67476 64.803 4.99487ZM74.501 13.3196C74.501 13.3196 72.5625 23.0015 72.5625 31.657C72.5625 40.3125 74.501 49.9943 74.501 49.9943H64.8766C64.8766 49.9943 66.8151 40.3125 66.8151 31.657C66.8151 23.0015 64.8766 13.3196 64.8766 13.3196H74.501Z" fill="white"/>
<path d="M102.926 36.6689L106.639 45.5012C106.639 45.5012 102.252 50 94.4016 50C87.8153 50 81.2347 44.4805 81.2347 32.1701C81.2347 19.8597 88.5805 13.3196 95.4162 13.3196C102.252 13.3196 107.483 18.9246 107.483 26.3941C107.483 33.8636 97.3546 35.4772 91.5335 35.4772C90.1845 35.4772 88.8299 35.3917 87.7359 35.3062C88.8355 37.2562 91.1141 38.3624 94.4016 38.3624C99.6332 38.3624 102.926 36.6632 102.926 36.6632V36.6689ZM87.4809 29.5359C88.4955 29.6214 89.5044 29.7069 90.519 29.7069C92.5425 29.7069 98.8737 29.4503 98.8737 26.3941C98.8737 25.7156 98.1992 24.9515 95.1611 24.9515C90.689 24.9515 88.4104 26.9871 87.4809 29.5359Z" fill="white"/>
<path d="M113.208 19.1812H117.51C116.496 17.4821 115.991 15.532 115.991 13.4052C115.991 5.25148 121.393 1.09479 127.299 1.09479C133.205 1.09479 136.583 4.57865 136.583 4.57865L134.475 13.4964C134.475 13.4964 132.111 12.7324 129.328 12.7324C125.865 12.7324 121.818 13.3254 121.818 16.2961C121.818 17.4022 122.073 18.3316 122.578 19.1812H134.31V32.6833C134.31 32.6833 130.088 31.4118 125.786 30.8986C125.956 40.1528 127.724 50 127.724 50H118.1C118.1 50 119.874 40.1528 120.044 30.9785C116.416 31.4859 113.208 32.6776 113.208 32.6776V19.1755V19.1812Z" fill="white"/>
<path d="M149.994 13.3196C149.994 18.7536 149.404 23.0015 148.894 26.8218C148.475 29.7924 148.05 31.8337 148.05 34.1259C148.05 37.2676 149.909 38.3681 152.522 38.3681C155.9 38.3681 158.768 37.2619 160.622 36.3325V31.6627C160.622 23.0015 158.683 13.3253 158.683 13.3253H168.307C168.307 13.3253 166.369 23.0072 166.369 31.6627C166.369 40.3182 168.307 50 168.307 50H160.627V44.7371C159.698 46.5218 157.334 50 152.017 50C145.601 50 142.314 43.9731 142.314 35.1408C142.314 32.0846 142.739 29.1139 143.158 25.9722C143.663 22.4085 144.422 19.1812 142.314 13.3196H149.994Z" fill="white"/>
<path d="M174.032 50C174.032 50 175.971 40.3182 175.971 31.6627C175.971 13.3254 174.032 1.09479 174.032 1.09479H181.712V31.6627C181.712 40.3239 183.651 50 183.651 50H174.027H174.032Z" fill="white"/>
<path d="M189.376 50C189.376 50 191.314 40.3182 191.314 31.6627C191.314 13.3254 189.376 1.09479 189.376 1.09479H197.056V31.6627C197.056 40.3239 198.994 50 198.994 50H189.37H189.376Z" fill="white"/>
</g>
<defs>
<clipPath id="clip0_4_107">
<rect width="199" height="50" fill="white"/>
</clipPath>
</defs>
</svg>
