<svg width="19" height="22" viewBox="0 0 19 22" fill="none" xmlns="http://www.w3.org/2000/svg">
<path d="M15.778 15.4571C14.9785 15.4571 14.2633 15.7864 13.7163 16.3024L6.21652 11.7465C6.26911 11.494 6.31118 11.2415 6.31118 10.978C6.31118 10.7146 6.26911 10.4621 6.21652 10.2096L13.6322 5.6976C14.2002 6.2465 14.947 6.58682 15.778 6.58682C17.524 6.58682 18.9335 5.11576 18.9335 3.29341C18.9335 1.47106 17.524 0 15.778 0C14.0319 0 12.6224 1.47106 12.6224 3.29341C12.6224 3.55688 12.6644 3.80938 12.717 4.06187L5.30139 8.57384C4.73339 8.02494 3.98656 7.68462 3.15559 7.68462C1.4095 7.68462 0 9.15568 0 10.978C0 12.8004 1.4095 14.2714 3.15559 14.2714C3.98656 14.2714 4.73339 13.9311 5.30139 13.3822L12.7907 17.9491C12.7381 18.1796 12.7065 18.4211 12.7065 18.6627C12.7065 20.4301 14.0845 21.8682 15.778 21.8682C17.4715 21.8682 18.8494 20.4301 18.8494 18.6627C18.8494 16.8952 17.4715 15.4571 15.778 15.4571ZM15.778 2.19561C16.3565 2.19561 16.8298 2.68962 16.8298 3.29341C16.8298 3.8972 16.3565 4.39121 15.778 4.39121C15.1994 4.39121 14.7261 3.8972 14.7261 3.29341C14.7261 2.68962 15.1994 2.19561 15.778 2.19561ZM3.15559 12.0758C2.57707 12.0758 2.10373 11.5818 2.10373 10.978C2.10373 10.3742 2.57707 9.88023 3.15559 9.88023C3.73412 9.88023 4.20746 10.3742 4.20746 10.978C4.20746 11.5818 3.73412 12.0758 3.15559 12.0758ZM15.778 19.7824C15.1994 19.7824 14.7261 19.2884 14.7261 18.6846C14.7261 18.0808 15.1994 17.5868 15.778 17.5868C16.3565 17.5868 16.8298 18.0808 16.8298 18.6846C16.8298 19.2884 16.3565 19.7824 15.778 19.7824Z" fill="black"/>
</svg>
