<svg width="28" height="28" viewBox="0 0 28 28" fill="none" xmlns="http://www.w3.org/2000/svg">
<path d="M13.7356 1C13.8985 1.00003 14.0771 1.08203 14.1838 1.31738L14.1887 1.32715L17.2444 7.87695V7.87793C17.5999 8.6694 18.3214 9.21518 19.1653 9.33691V9.33789L25.9905 10.3818L25.9944 10.3828C26.1738 10.4095 26.3399 10.5411 26.4163 10.7891C26.4932 11.0389 26.4381 11.2899 26.2756 11.458L21.3323 16.5605L21.3235 16.5703C20.7644 17.1632 20.4874 18.0081 20.6262 18.8555L21.7854 26.0664L21.7864 26.0703C21.8332 26.3532 21.7184 26.5789 21.5549 26.7061C21.3972 26.8286 21.2226 26.847 21.053 26.752L21.051 26.751L14.9475 23.3408H14.9465C14.2477 22.9409 13.3932 22.9182 12.677 23.2734L12.551 23.3408L6.44751 26.751L6.44556 26.752C6.2759 26.8471 6.10137 26.8287 5.9436 26.7061C5.78006 26.5789 5.66534 26.3532 5.71216 26.0703L5.71313 26.0664L6.87231 18.8525L6.87134 18.8516C7.00876 18.0055 6.73331 17.1624 6.17505 16.5703L6.16821 16.5625L6.16138 16.5557L1.17896 11.4814C1.01173 11.3085 0.957106 11.0533 1.03149 10.8076C1.1041 10.5683 1.26496 10.4345 1.45728 10.4062L1.46411 10.4053L8.28931 9.36133L8.28833 9.36035C9.17386 9.23281 9.83113 8.63378 10.1848 7.95215L10.1956 7.93262L10.2043 7.91309L13.2649 1.33105C13.381 1.08497 13.571 1 13.7356 1Z" stroke="black" stroke-opacity="0.5" stroke-width="2"/>
</svg>
