<svg width="12" height="12" viewBox="0 0 12 12" fill="none" xmlns="http://www.w3.org/2000/svg">
<path d="M6.69103 0.451571L7.94561 3.10919C8.05902 3.34608 8.27874 3.50894 8.52682 3.55336L11.3337 3.98273C11.9645 4.07896 12.2197 4.89327 11.759 5.35965L9.7247 7.43245C9.54041 7.61752 9.46244 7.88402 9.50497 8.14312L9.98695 11.0672C10.0933 11.7261 9.43409 12.2295 8.86705 11.9186L6.35789 10.5416C6.13108 10.4158 5.86173 10.4158 5.642 10.5416L3.13285 11.9186C2.56581 12.2295 1.90662 11.7261 2.01294 11.0672L2.49493 8.14312C2.53746 7.88402 2.4524 7.61752 2.2752 7.43245L0.233853 5.35225C-0.226868 4.88587 0.0283006 4.07156 0.659133 3.97532L3.46598 3.54596C3.71407 3.50894 3.93379 3.34608 4.0472 3.10179L5.30178 0.444168C5.5853 -0.155462 6.40042 -0.155462 6.68394 0.444168L6.69103 0.451571Z" fill="#F99F43"/>
</svg>
